# xmcd
#
# Track frame offsets: 
#        150
#        19629
#        47096
#        70065
#        85638
#        103818
#        132483
#        151884
#        180895
#        195490
#        208687
#        223084
#        236670
#        257962
#
# Disc length: 3640 seconds
#
# Revision: 0
# Processed by: cddbd v1.5.1PL0 Copyright (c) Steve Scherf et al.
# Submitted via: ExactAudioCopy v0.95b3
#
DISCID=be0e360e
DTITLE=Ben Andrews - Journey
DYEAR=1999
DGENRE=Blues
TTITLE0=Travelling Riverside Blues
TTITLE1=Talking Casey
TTITLE2=Before You Accuse Me
TTITLE3=Hambone
TTITLE4=Cry For Me
TTITLE5=Phonograph Blues
TTITLE6=Poor Boy
TTITLE7=Baby Please Don't Go
TTITLE8=Candy Man
TTITLE9=Jumpin' Rag
TTITLE10=Titanic
TTITLE11=Love Change Blues
TTITLE12=Vigilante Man
TTITLE13=Ain't No Need
EXTD=
EXTT0=
EXTT1=
EXTT2=
EXTT3=
EXTT4=
EXTT5=
EXTT6=
EXTT7=
EXTT8=
EXTT9=
EXTT10=
EXTT11=
EXTT12=
EXTT13=
PLAYORDER=
